# xmcd
#
# Track frame offsets: 
#        182
#        17207
#        34282
#        62857
#        80057
#
# Disc length: 1285 seconds
#
# Revision: 0
# Processed by: cddbd v1.5.2PL0 Copyright (c) Steve Scherf et al.
# Submitted via: ExactAudioCopy v1.0b3
#
DISCID=40050305
DTITLE=The Project Of Rhythm - Juliet
DYEAR=1900
DGENRE=
TTITLE0=Juliet (Energy Radio Mix)
TTITLE1=Juliet (Another Radio Mix)
TTITLE2=Juliet (Energy Club Mix)
TTITLE3=Juliet (Energy Radio Mix - Instrumental)
TTITLE4=Juliet (Speedy Energy Mix)
EXTD=
EXTT0=
EXTT1=
EXTT2=
EXTT3=
EXTT4=
PLAYORDER=
